<?xml version="1.0" encoding="utf-8"?>
<!-- Generator: Adobe Illustrator 16.0.0, SVG Export Plug-In . SVG Version: 6.00 Build 0)  -->
<!DOCTYPE svg PUBLIC "-//W3C//DTD SVG 1.1//EN" "http://www.w3.org/Graphics/SVG/1.1/DTD/svg11.dtd">
<svg version="1.1" id="Layer_1" xmlns="http://www.w3.org/2000/svg" xmlns:xlink="http://www.w3.org/1999/xlink" x="0px" y="0px"
	 width="289.058px" height="195.206px" viewBox="0 0 289.058 195.206" enable-background="new 0 0 289.058 195.206"
	 xml:space="preserve">
<g>
	<path id="rnd1_1_" fill="#FFFFFF" d="M289.058,159.798c-0.082-18.952-15.513-34.244-34.459-34.158
		c-8.789,0.035-16.794,3.392-22.843,8.854c-11.214,10.158-14.205,20.032-32.919,20.111c-13.428,0.058-18.785-4.503-25.594-13.046
		c-6.095-9.229-16.512-15.324-28.341-15.419l-0.232-0.016h-0.227h-0.072h-0.069h-0.148l-0.267,0.021
		c-9.992,0.158-18.928,4.586-25.093,11.519c-9.06,9.146-13.058,17.352-30.112,17.426c-14.486,0.068-19.58-5.236-27.244-15.14
		c-6.308-8.159-16.197-13.388-27.298-13.341C15.211,126.694-0.083,142.123,0,161.069c0.082,18.928,15.513,34.222,34.442,34.137
		c10.858-0.041,20.508-5.124,26.763-13.008c7.546-9.556,14.636-14.976,28.071-15.034c14.56-0.063,20.325,6.147,28.487,14.817
		c6.247,7.711,15.769,12.672,26.433,12.745l0.217-0.004h0.192h0.067h0.074h0.233h0.201c11.516-0.186,21.629-6.054,27.713-14.904
		c7.008-8.369,14.016-13.088,26.536-13.145c15.739-0.069,21.206,7.197,30.515,16.943c6.275,6.581,15.148,10.66,24.956,10.619
		C273.847,194.157,289.14,178.726,289.058,159.798z"/>
	<path id="rnd2_1_" fill="#FFFFFF" d="M233.434,95.742c-0.083-18.929-15.503-34.225-34.443-34.14
		c-8.798,0.038-16.806,3.377-22.855,8.856c-11.211,10.141-14.211,20.027-32.919,20.109c-14.484,0.066-19.578-5.248-27.234-15.155
		c-6.31-8.147-16.199-13.374-27.296-13.325c-18.941,0.084-34.234,15.514-34.149,34.445c0.082,18.945,15.511,34.241,34.452,34.156
		c10.85-0.047,20.501-5.13,26.754-13.027c7.546-9.541,14.644-14.96,28.07-15.021c15.728-0.069,21.197,7.182,30.514,16.929
		c6.285,6.598,15.15,10.671,24.966,10.634C218.231,130.119,233.519,114.691,233.434,95.742z"/>
	<path id="rnd3_1_" fill="#FFFFFF" d="M178.197,34.157C178.112,15.208,162.684-0.083,143.745,0
		c-18.944,0.083-34.241,15.512-34.156,34.458c0.083,18.93,15.511,34.226,34.458,34.14C162.988,68.516,178.282,53.085,178.197,34.157
		z"/>
</g>
</svg>
