<?xml version="1.0" encoding="utf-8"?>
<!-- Generator: Adobe Illustrator 16.0.0, SVG Export Plug-In . SVG Version: 6.00 Build 0)  -->
<!DOCTYPE svg PUBLIC "-//W3C//DTD SVG 1.1//EN" "http://www.w3.org/Graphics/SVG/1.1/DTD/svg11.dtd">
<svg version="1.1" id="Layer_1" xmlns="http://www.w3.org/2000/svg" xmlns:xlink="http://www.w3.org/1999/xlink" x="0px" y="0px"
	 width="289.057px" height="265.421px" viewBox="0 0 289.057 265.421" enable-background="new 0 0 289.057 265.421"
	 xml:space="preserve">
<g>
	<g>
		<path id="rnd1" fill="#1C3664" d="M245.06,151.004c-0.057-12.82-10.496-23.167-23.316-23.11
			c-5.945,0.026-11.361,2.295-15.453,5.992c-7.588,6.873-9.611,13.552-22.272,13.605c-9.085,0.041-12.71-3.046-17.316-8.826
			c-4.124-6.244-11.171-10.367-19.175-10.433l-0.156-0.011h-0.154h-0.049h-0.046l-0.101,0.002l-0.182,0.012
			c-6.759,0.107-12.806,3.103-16.977,7.795c-6.129,6.188-8.834,11.738-20.374,11.791c-9.8,0.044-13.247-3.544-18.433-10.245
			c-4.268-5.521-10.958-9.058-18.469-9.026c-12.807,0.057-23.154,10.497-23.098,23.314c0.055,12.809,10.495,23.154,23.303,23.099
			c7.346-0.03,13.876-3.469,18.107-8.802c5.106-6.466,9.903-10.133,18.992-10.173c9.852-0.042,13.752,4.16,19.274,10.026
			c4.227,5.215,10.669,8.573,17.884,8.622l0.147-0.004h0.129h0.046h0.05h0.158h0.137c7.791-0.124,14.633-4.093,18.75-10.081
			c4.742-5.664,9.482-8.856,17.953-8.894c10.648-0.047,14.348,4.869,20.646,11.465c4.244,4.45,10.248,7.21,16.885,7.182
			C234.767,174.251,245.115,163.812,245.06,151.004z"/>
		<path id="rnd2" fill="#8ABFD9" d="M207.425,107.666c-0.057-12.807-10.49-23.155-23.304-23.099
			c-5.952,0.026-11.37,2.285-15.464,5.992c-7.584,6.861-9.614,13.551-22.271,13.605c-9.799,0.045-13.246-3.55-18.426-10.254
			c-4.269-5.512-10.959-9.048-18.468-9.015c-12.815,0.057-23.162,10.496-23.105,23.305c0.056,12.817,10.494,23.166,23.309,23.109
			c7.34-0.033,13.871-3.469,18.101-8.814c5.106-6.455,9.908-10.122,18.991-10.163c10.641-0.046,14.342,4.86,20.646,11.454
			c4.253,4.463,10.25,7.221,16.892,7.194C197.14,130.925,207.482,120.486,207.425,107.666z"/>
		<path id="rnd3" fill="#F26724" d="M170.052,65.999c-0.057-12.819-10.494-23.166-23.309-23.109
			c-12.817,0.056-23.167,10.495-23.109,23.313c0.057,12.808,10.496,23.157,23.314,23.099
			C159.763,89.246,170.11,78.806,170.052,65.999z"/>
	</g>
	<g>
		<path fill="#1C3664" d="M62.601,188.729c1.231,1.113,1.847,2.793,1.847,5.039v9.251H60.96v-1.921
			c-0.453,0.69-1.098,1.217-1.936,1.581s-1.847,0.547-3.029,0.547s-2.217-0.202-3.104-0.605c-0.886-0.404-1.571-0.966-2.054-1.686
			c-0.483-0.719-0.725-1.531-0.725-2.438c0-1.419,0.527-2.557,1.582-3.413c1.054-0.858,2.714-1.286,4.98-1.286h4.079v-0.236
			c0-1.104-0.33-1.951-0.99-2.542c-0.66-0.592-1.64-0.887-2.941-0.887c-0.886,0-1.758,0.138-2.615,0.413
			c-0.857,0.276-1.581,0.661-2.172,1.153l-1.448-2.689c0.828-0.631,1.822-1.113,2.985-1.448c1.162-0.335,2.394-0.503,3.694-0.503
			C59.59,187.06,61.369,187.617,62.601,188.729z M59.231,199.901c0.719-0.423,1.226-1.029,1.522-1.817v-1.832h-3.812
			c-2.128,0-3.192,0.699-3.192,2.098c0,0.671,0.266,1.203,0.798,1.597c0.532,0.395,1.271,0.591,2.217,0.591
			C57.689,200.537,58.512,200.325,59.231,199.901z"/>
		<path fill="#1C3664" d="M91.461,188.789c1.162,1.152,1.743,2.882,1.743,5.187v9.044H89.51v-8.57c0-1.379-0.306-2.419-0.916-3.118
			c-0.611-0.699-1.488-1.049-2.63-1.049c-1.241,0-2.236,0.408-2.985,1.226c-0.749,0.818-1.123,1.985-1.123,3.503v8.009h-3.694v-8.57
			c0-1.379-0.306-2.419-0.917-3.118c-0.611-0.699-1.488-1.049-2.63-1.049c-1.261,0-2.261,0.403-3,1.211
			c-0.739,0.809-1.108,1.98-1.108,3.518v8.009h-3.694v-15.782h3.517v2.01c0.591-0.709,1.33-1.251,2.216-1.625
			c0.887-0.374,1.872-0.562,2.956-0.562c1.183,0,2.231,0.223,3.147,0.665c0.917,0.443,1.641,1.099,2.172,1.966
			c0.65-0.827,1.488-1.473,2.512-1.936s2.157-0.695,3.399-0.695C88.722,187.06,90.298,187.636,91.461,188.789z"/>
		<path fill="#1C3664" d="M108.44,188.065c1.211,0.67,2.162,1.615,2.852,2.837c0.689,1.222,1.034,2.63,1.034,4.227
			c0,1.596-0.345,3.01-1.034,4.241c-0.69,1.231-1.641,2.183-2.852,2.852c-1.212,0.67-2.586,1.005-4.123,1.005
			c-1.084,0-2.074-0.188-2.97-0.562c-0.897-0.374-1.65-0.936-2.261-1.685v2.039h-3.517v-21.93h3.694v8.068
			c0.63-0.689,1.375-1.212,2.231-1.566c0.857-0.354,1.798-0.532,2.823-0.532C105.854,187.06,107.228,187.396,108.44,188.065z
			 M107.258,198.704c0.876-0.905,1.315-2.098,1.315-3.575c0-1.479-0.439-2.67-1.315-3.576c-0.877-0.906-1.995-1.359-3.355-1.359
			c-0.886,0-1.684,0.202-2.394,0.605c-0.709,0.404-1.271,0.98-1.685,1.729c-0.414,0.749-0.621,1.616-0.621,2.602
			s0.207,1.852,0.621,2.601c0.414,0.749,0.975,1.325,1.685,1.729c0.709,0.404,1.507,0.606,2.394,0.606
			C105.263,200.064,106.381,199.611,107.258,198.704z"/>
		<path fill="#1C3664" d="M130.621,196.311h-12.384c0.217,1.163,0.784,2.084,1.7,2.764c0.917,0.68,2.054,1.02,3.414,1.02
			c1.733,0,3.162-0.571,4.285-1.714l1.98,2.275c-0.709,0.848-1.606,1.487-2.689,1.921s-2.305,0.65-3.665,0.65
			c-1.734,0-3.262-0.345-4.582-1.034s-2.34-1.65-3.059-2.882c-0.72-1.231-1.079-2.625-1.079-4.182c0-1.537,0.35-2.921,1.049-4.152
			c0.699-1.231,1.669-2.192,2.911-2.882c1.241-0.689,2.64-1.035,4.196-1.035c1.537,0,2.911,0.34,4.123,1.02
			c1.212,0.681,2.158,1.637,2.837,2.867c0.68,1.231,1.02,2.655,1.02,4.271C130.68,195.474,130.66,195.838,130.621,196.311z
			 M119.7,191.064c-0.818,0.7-1.315,1.631-1.493,2.793h8.955c-0.158-1.143-0.641-2.068-1.448-2.778
			c-0.809-0.709-1.813-1.063-3.015-1.063C121.518,190.016,120.518,190.365,119.7,191.064z"/>
		<path fill="#1C3664" d="M142.177,187.06v3.518c-0.316-0.059-0.602-0.089-0.857-0.089c-1.439,0-2.562,0.419-3.37,1.256
			c-0.808,0.838-1.212,2.045-1.212,3.621v7.654h-3.694v-15.782h3.517v2.305C137.625,187.888,139.497,187.06,142.177,187.06z"/>
		<path fill="#1C3664" d="M160.619,181.09v21.93h-3.547v-2.039c-0.61,0.749-1.364,1.311-2.26,1.685
			c-0.898,0.374-1.888,0.562-2.971,0.562c-1.518,0-2.882-0.335-4.094-1.005c-1.211-0.669-2.162-1.62-2.852-2.852
			s-1.034-2.646-1.034-4.241c0-1.597,0.344-3.005,1.034-4.227s1.641-2.167,2.852-2.837c1.212-0.67,2.576-1.006,4.094-1.006
			c1.045,0,2,0.178,2.867,0.532c0.866,0.354,1.605,0.887,2.216,1.597v-8.099H160.619z M154.679,199.458
			c0.709-0.403,1.27-0.979,1.684-1.729s0.621-1.615,0.621-2.601s-0.207-1.853-0.621-2.602c-0.414-0.748-0.975-1.324-1.684-1.729
			c-0.71-0.403-1.508-0.605-2.395-0.605s-1.685,0.202-2.395,0.605c-0.709,0.404-1.27,0.98-1.685,1.729
			c-0.413,0.749-0.62,1.616-0.62,2.602s0.207,1.852,0.62,2.601c0.415,0.749,0.976,1.325,1.685,1.729
			c0.71,0.404,1.508,0.606,2.395,0.606S153.969,199.862,154.679,199.458z"/>
		<path fill="#1C3664" d="M176.239,188.729c1.231,1.113,1.847,2.793,1.847,5.039v9.251h-3.486v-1.921
			c-0.454,0.69-1.1,1.217-1.937,1.581s-1.847,0.547-3.029,0.547s-2.217-0.202-3.103-0.605c-0.887-0.404-1.572-0.966-2.055-1.686
			c-0.483-0.719-0.725-1.531-0.725-2.438c0-1.419,0.527-2.557,1.582-3.413c1.053-0.858,2.713-1.286,4.98-1.286h4.078v-0.236
			c0-1.104-0.33-1.951-0.99-2.542c-0.66-0.592-1.641-0.887-2.941-0.887c-0.887,0-1.758,0.138-2.615,0.413
			c-0.857,0.276-1.582,0.661-2.172,1.153l-1.449-2.689c0.828-0.631,1.822-1.113,2.986-1.448c1.162-0.335,2.393-0.503,3.693-0.503
			C173.229,187.06,175.007,187.617,176.239,188.729z M172.87,199.901c0.719-0.423,1.226-1.029,1.522-1.817v-1.832h-3.812
			c-2.129,0-3.193,0.699-3.193,2.098c0,0.671,0.268,1.203,0.799,1.597c0.531,0.395,1.271,0.591,2.217,0.591
			C171.328,200.537,172.15,200.325,172.87,199.901z"/>
		<path fill="#1C3664" d="M192.301,202.163c-0.435,0.354-0.96,0.62-1.581,0.798c-0.621,0.177-1.276,0.266-1.965,0.266
			c-1.734,0-3.074-0.453-4.02-1.359c-0.946-0.906-1.42-2.227-1.42-3.961v-7.596h-2.6v-2.955h2.6v-3.605h3.695v3.605h4.226v2.955
			h-4.226v7.508c0,0.768,0.188,1.354,0.562,1.759c0.374,0.403,0.915,0.605,1.626,0.605c0.826,0,1.516-0.217,2.068-0.65
			L192.301,202.163z"/>
		<path fill="#1C3664" d="M206.708,188.729c1.232,1.113,1.848,2.793,1.848,5.039v9.251h-3.486v-1.921
			c-0.455,0.69-1.1,1.217-1.938,1.581c-0.836,0.364-1.846,0.547-3.029,0.547c-1.182,0-2.217-0.202-3.104-0.605
			c-0.887-0.404-1.57-0.966-2.053-1.686c-0.483-0.719-0.725-1.531-0.725-2.438c0-1.419,0.527-2.557,1.582-3.413
			c1.053-0.858,2.713-1.286,4.98-1.286h4.078v-0.236c0-1.104-0.33-1.951-0.99-2.542c-0.66-0.592-1.641-0.887-2.941-0.887
			c-0.887,0-1.758,0.138-2.615,0.413c-0.857,0.276-1.582,0.661-2.172,1.153l-1.449-2.689c0.828-0.631,1.822-1.113,2.986-1.448
			c1.162-0.335,2.393-0.503,3.693-0.503C203.699,187.06,205.478,187.617,206.708,188.729z M203.339,199.901
			c0.719-0.423,1.227-1.029,1.523-1.817v-1.832h-3.812c-2.129,0-3.193,0.699-3.193,2.098c0,0.671,0.268,1.203,0.799,1.597
			c0.531,0.395,1.27,0.591,2.217,0.591C201.798,200.537,202.621,200.325,203.339,199.901z"/>
		<path fill="#1C3664" d="M212.753,202.532c-0.473-0.463-0.709-1.049-0.709-1.759c0-0.729,0.23-1.319,0.693-1.772
			c0.463-0.454,1.039-0.681,1.729-0.681c0.691,0,1.268,0.227,1.73,0.681c0.463,0.453,0.693,1.044,0.693,1.772
			c0,0.71-0.236,1.296-0.709,1.759s-1.045,0.694-1.715,0.694S213.226,202.995,212.753,202.532z"/>
		<path fill="#1C3664" d="M220.673,184.001c-0.453-0.424-0.68-0.95-0.68-1.581s0.227-1.157,0.68-1.581s1.016-0.636,1.686-0.636
			s1.23,0.202,1.684,0.605c0.453,0.404,0.68,0.912,0.68,1.522c0,0.65-0.221,1.197-0.664,1.641s-1.01,0.665-1.699,0.665
			C221.689,184.637,221.126,184.425,220.673,184.001z M220.496,187.237h3.695v15.782h-3.695V187.237z"/>
		<path fill="#1C3664" d="M230.632,202.192c-1.281-0.689-2.279-1.65-3-2.882c-0.719-1.231-1.078-2.625-1.078-4.182
			s0.359-2.945,1.078-4.167c0.721-1.222,1.719-2.178,3-2.867s2.719-1.035,4.316-1.035c1.615,0,3.062,0.346,4.344,1.035
			s2.279,1.646,3,2.867c0.719,1.222,1.078,2.61,1.078,4.167s-0.359,2.95-1.078,4.182c-0.721,1.231-1.719,2.192-3,2.882
			s-2.729,1.034-4.344,1.034C233.351,203.227,231.914,202.882,230.632,202.192z M238.318,198.704c0.887-0.905,1.33-2.098,1.33-3.575
			c0-1.479-0.443-2.67-1.33-3.576s-2.01-1.359-3.369-1.359s-2.479,0.453-3.355,1.359s-1.314,2.098-1.314,3.576
			c0,1.478,0.438,2.67,1.314,3.575c0.877,0.907,1.996,1.36,3.355,1.36S237.431,199.611,238.318,198.704z"/>
	</g>
</g>
</svg>
