<?xml version="1.0" encoding="utf-8"?>
<!-- Generator: Adobe Illustrator 16.0.0, SVG Export Plug-In . SVG Version: 6.00 Build 0)  -->
<!DOCTYPE svg PUBLIC "-//W3C//DTD SVG 1.1//EN" "http://www.w3.org/Graphics/SVG/1.1/DTD/svg11.dtd">
<svg version="1.1" id="Layer_1" xmlns="http://www.w3.org/2000/svg" xmlns:xlink="http://www.w3.org/1999/xlink" x="0px" y="0px"
	 width="289.057px" height="195.209px" viewBox="0 0 289.057 195.209" enable-background="new 0 0 289.057 195.209"
	 xml:space="preserve">
<g>
	<path id="rnd1" fill="#1C3664" d="M289.057,159.796c-0.082-18.949-15.513-34.242-34.46-34.158
		c-8.789,0.039-16.794,3.393-22.842,8.857c-11.214,10.158-14.206,20.029-32.919,20.108c-13.428,0.062-18.786-4.501-25.594-13.045
		c-6.095-9.229-16.512-15.322-28.341-15.419l-0.231-0.017h-0.228h-0.072h-0.068l-0.149,0.003l-0.267,0.018
		c-9.991,0.158-18.928,4.586-25.093,11.521c-9.06,9.146-13.058,17.351-30.112,17.428c-14.485,0.065-19.579-5.237-27.244-15.143
		c-6.308-8.159-16.197-13.388-27.297-13.341C15.21,126.692-0.083,142.123,0,161.067c0.082,18.932,15.512,34.223,34.442,34.141
		c10.858-0.045,20.509-5.127,26.763-13.01c7.547-9.557,14.637-14.977,28.07-15.035c14.562-0.062,20.326,6.148,28.487,14.818
		c6.247,7.709,15.769,12.672,26.433,12.744l0.217-0.006h0.192h0.067h0.074h0.233h0.202c11.515-0.184,21.628-6.049,27.713-14.9
		c7.008-8.371,14.016-13.09,26.535-13.145c15.739-0.068,21.206,7.197,30.516,16.945c6.274,6.578,15.147,10.656,24.955,10.615
		C273.845,194.155,289.139,178.726,289.057,159.796z"/>
	<path id="rnd2" fill="#8ABFD9" d="M233.433,95.742c-0.084-18.929-15.504-34.225-34.443-34.141
		c-8.797,0.039-16.805,3.377-22.855,8.856c-11.211,10.141-14.211,20.028-32.918,20.11c-14.484,0.066-19.578-5.248-27.235-15.156
		c-6.309-8.146-16.198-13.374-27.296-13.325C69.745,62.171,54.452,77.6,54.536,96.532c0.082,18.945,15.511,34.241,34.451,34.157
		c10.85-0.049,20.502-5.127,26.754-13.027c7.547-9.541,14.645-14.961,28.07-15.021c15.728-0.068,21.197,7.183,30.514,16.93
		c6.285,6.596,15.15,10.672,24.966,10.633C218.23,130.118,233.518,114.69,233.433,95.742z"/>
	<path id="rnd3" fill="#F26724" d="M178.196,34.156C178.111,15.209,162.683-0.083,143.744,0
		c-18.944,0.083-34.24,15.512-34.156,34.458c0.085,18.93,15.513,34.226,34.46,34.14C162.987,68.516,178.28,53.085,178.196,34.156z"
		/>
</g>
</svg>
